REM DIRINDEX 1\2,1\3
REM DIRNAME cjc052,folder01,folder02
TITLE ""
FILE "Disk3Track32.mp3" MP3
  TRACK 01 AUDIO
    TITLE "2:cjc052_1339"
    INDEX 01 00:00:00
  TRACK 02 AUDIO
    TITLE "2:cjc052_1340"
    INDEX 01 00:09:67
  TRACK 03 AUDIO
    TITLE "2:cjc052_1341"
    INDEX 01 00:15:62
  TRACK 04 AUDIO
    TITLE "2:cjc052_1342"
    INDEX 01 00:27:57
  TRACK 05 AUDIO
    TITLE "2:cjc052_1343"
    INDEX 01 00:35:35
  TRACK 06 AUDIO
    TITLE "0:"
    INDEX 01 00:48:40
